HIERARCHY
ROOT Root
{
	OFFSET 0.00000 0.00000 0.00000
	CHANNELS 6 Xposition Yposition Zposition Zrotation Xrotation Yrotation
	JOINT Hips
	{
		OFFSET 0 0 0	
		CHANNELS 3 Zrotation Xrotation Yrotation
		JOINT Spine
		{
			OFFSET 0 4 0	
			CHANNELS 3 Zrotation Xrotation Yrotation
			JOINT Spine1
			{
				OFFSET 0 19.4 0	
				CHANNELS 3 Zrotation Xrotation Yrotation
				JOINT Spine2
				{
					OFFSET 0 16.6 0	
					CHANNELS 3 Zrotation Xrotation Yrotation
					JOINT LeftCollar
					{
						OFFSET 0 10 0	
						CHANNELS 3 Zrotation Xrotation Yrotation
						JOINT LeftArm
						{
							OFFSET 15.6 -2 3	
							CHANNELS 3 Zrotation Xrotation Yrotation
							JOINT LeftForeArm
							{
								OFFSET 3.5 -27 -1	
								CHANNELS 3 Zrotation Xrotation Yrotation
								JOINT LeftHand
								{
									OFFSET 1 -27 1	
									CHANNELS 3 Zrotation Xrotation Yrotation
									End Site
									{
										OFFSET 0 -15 0
									}
								}
							}
						}
					}
					JOINT RightCollar
					{
						OFFSET 0 10 0	
						CHANNELS 3 Zrotation Xrotation Yrotation
						JOINT RightArm
						{
							OFFSET -15.6 -2 3	
							CHANNELS 3 Zrotation Xrotation Yrotation
							JOINT RightForeArm
							{
								OFFSET -3.5 -27 -1	
								CHANNELS 3 Zrotation Xrotation Yrotation
								JOINT RightHand
								{
									OFFSET -1 -27 1	
									CHANNELS 3 Zrotation Xrotation Yrotation
									End Site
									{
										OFFSET 0 -15 0
									}
								}
							}
						}
					}
					JOINT Neck
					{
						OFFSET 0 10 0	
						CHANNELS 3 Zrotation Xrotation Yrotation
						JOINT Head
						{
							OFFSET 0 12.7 3	
							CHANNELS 3 Zrotation Xrotation Yrotation
							End Site
							{
								OFFSET 0 12.7 3
							}
						}
					}
				}
			}
		}
	}
	JOINT LeftHip
	{
		OFFSET 0 0 0	
		CHANNELS 3 Zrotation Xrotation Yrotation
		JOINT LeftUpLeg
		{
			OFFSET 8.8 -6 0	
			CHANNELS 3 Zrotation Xrotation Yrotation
			JOINT LeftLeg
			{
				OFFSET 0 -39 2	
				CHANNELS 3 Zrotation Xrotation Yrotation
				JOINT LeftFoot
				{
					OFFSET 0 -43 -2	
					CHANNELS 3 Zrotation Xrotation Yrotation
					JOINT LeftFootFront
					{
						OFFSET 0 -7 8.5	
						CHANNELS 3 Zrotation Xrotation Yrotation
						End Site
						{
							OFFSET 0 -0.5 9
						}
					}
				}
				JOINT LeftHeel
				{
					OFFSET 0 -43 -2	
					CHANNELS 3 Zrotation Xrotation Yrotation
					End Site
					{
						OFFSET 0 -7.5 -5
					}
				}
			}
		}
	}
	JOINT RightHip
	{
		OFFSET 0 0 0	
		CHANNELS 3 Zrotation Xrotation Yrotation
		JOINT RightUpLeg
		{
			OFFSET -8.8 -6 0	
			CHANNELS 3 Zrotation Xrotation Yrotation
			JOINT RightLeg
			{
				OFFSET 0 -39 2	
				CHANNELS 3 Zrotation Xrotation Yrotation
				JOINT RightFoot
				{
					OFFSET 0 -43 -2	
					CHANNELS 3 Zrotation Xrotation Yrotation
					JOINT RightFootFront
					{
						OFFSET 0 -7 8.5	
						CHANNELS 3 Zrotation Xrotation Yrotation
						End Site
						{
							OFFSET 0 -0.5 9
						}
					}
				}
				JOINT RightHeel
				{
					OFFSET 0 -43 -2	
					CHANNELS 3 Zrotation Xrotation Yrotation
					End Site
					{
						OFFSET 0 -7.5 -5
					}
				}
			}
		}
	}
}
MOTION
Frames: 17
Frame Time: 0.025
-2.0302 94.581 1.402 -0 0 -0 0.12714 8.5382 1.7632 -5.2213 -1.6156 5.7476 -5.2213 -1.6156 5.7476 -4.397 -1.3221 4.838 -0 0 -0 21.859 -4.165 -9.1718 2.8746 -10.056 -2.5266 11.821 13.103 -31.962 -0 0 -0 17.614 -13.076 -29.667 -19.499 -12.077 -10.853 -6.0637 0.96414 49.377 4.0469 1.2328 -42.794 4.0469 1.2328 -42.794 0.12714 8.5382 1.7632 4.7824 -8.2932 14.316 -0.96434 5.2303 5.0635 -5.29 -3.5862 -86.999 0.0016186 -0.0059594 0.0022728 -0 0 -0 0.12714 8.5382 1.7632 3.9644 -22.528 -10.663 -13.922 3.3587 12.504 8.3988 7.8017 -6.0692 -0.022254 -0.036113 0.0028852 -0 0 -0 
-2.0132 94.577 1.3613 -0 0 -0 0.17821 8.5407 1.8245 -5.2122 -1.5846 5.7253 -5.2122 -1.5846 5.7253 -4.3891 -1.2963 4.8191 -0 0 -0 21.85 -4.2534 -9.1243 2.9028 -10.129 -2.5025 11.925 13.314 -31.997 -0 0 -0 17.607 -13.069 -29.613 -19.23 -12.31 -10.711 -6.2669 0.62599 49.584 3.9654 1.1711 -42.685 3.9654 1.1711 -42.685 0.17821 8.5407 1.8245 4.7173 -8.3791 14.165 -0.98189 5.2766 5.0636 -5.2544 -3.5712 -86.91 0.00098394 -0.0063055 0.0022377 -0 0 -0 0.17821 8.5407 1.8245 3.9176 -22.614 -10.708 -13.985 3.4218 12.485 8.3911 7.7794 -6.0417 -0.024419 -0.033845 0.0028719 -0 0 -0 
-1.9952 94.573 1.3176 -0 0 -0 0.22932 8.5191 1.9106 -5.204 -1.5496 5.7033 -5.204 -1.5496 5.7033 -4.3819 -1.267 4.8004 -0 0 -0 21.826 -4.3549 -9.0929 2.8819 -10.242 -2.5098 12.049 13.462 -32.002 -0 0 -0 17.612 -13.06 -29.559 -19.112 -12.437 -10.669 -6.2538 0.30155 49.785 3.8865 1.1146 -42.571 3.8865 1.1146 -42.571 0.22932 8.5191 1.9106 4.6553 -8.4361 14.071 -1.0058 5.3107 4.9929 -5.2132 -3.5462 -86.831 0.0024221 -0.0057246 0.0027401 -0 0 -0 0.22932 8.5191 1.9106 3.8426 -22.674 -10.781 -14.045 3.4932 12.455 8.3926 7.7495 -6.0096 -0.019423 -0.021173 0.0029701 -0 0 -0 
-1.9766 94.57 1.2726 -0 0 -0 0.27798 8.4807 2.0151 -5.1956 -1.5187 5.682 -5.1956 -1.5187 5.682 -4.3746 -1.2413 4.7823 -0 0 -0 21.79 -4.4552 -9.0715 2.8107 -10.374 -2.5514 12.183 13.555 -31.995 -0 0 -0 17.623 -13.045 -29.513 -19.15 -12.459 -10.694 -6.0633 0.036593 49.939 3.8243 1.0773 -42.463 3.8243 1.0773 -42.463 0.27798 8.4807 2.0151 4.589 -8.4662 14.023 -1.0231 5.331 4.8402 -5.1692 -3.5214 -86.736 0.0038646 -0.0041384 0.0030278 -0 0 -0 0.27798 8.4807 2.0151 3.7467 -22.698 -10.883 -14.088 3.5535 12.409 8.3986 7.7287 -5.9619 -0.0017004 0.00091845 0.0030671 -0 0 -0 
-1.9578 94.567 1.2278 -0 0 -0 0.32072 8.4338 2.1299 -5.1829 -1.4985 5.6606 -5.1829 -1.4985 5.6606 -4.3638 -1.2245 4.7642 -0 0 -0 21.74 -4.5369 -9.0509 2.7007 -10.511 -2.6213 12.314 13.604 -31.994 -0 0 -0 17.63 -13.018 -29.483 -19.322 -12.385 -10.766 -5.7905 -0.14901 50.056 3.7757 1.0626 -42.369 3.7757 1.0626 -42.369 0.32072 8.4338 2.1299 4.519 -8.4752 13.995 -1.027 5.3416 4.6462 -5.1293 -3.5027 -86.633 0.0037281 -0.0034016 0.0032719 -0 0 -0 0.32072 8.4338 2.1299 3.6422 -22.704 -10.999 -14.115 3.612 12.356 8.4186 7.7235 -5.913 0.0108 0.0079485 0.003096 -0 0 -0 
-1.9391 94.564 1.1843 -0 0 -0 0.34991 8.3799 2.245 -5.1612 -1.4881 5.6421 -5.1612 -1.4881 5.6421 -4.3455 -1.2161 4.7486 -0 0 -0 21.667 -4.5971 -9.0327 2.5794 -10.64 -2.7096 12.419 13.614 -32.003 -0 0 -0 17.625 -12.98 -29.473 -19.598 -12.236 -10.877 -5.5224 -0.2637 50.159 3.7368 1.0618 -42.296 3.7368 1.0618 -42.296 0.34991 8.3799 2.245 4.4605 -8.4755 13.968 -1.0211 5.3611 4.4689 -5.0985 -3.4926 -86.548 0.0032757 -0.003054 0.002954 -0 0 -0 0.34991 8.3799 2.245 3.5452 -22.7 -11.097 -14.134 3.6792 12.31 8.4532 7.715 -5.8908 0.017384 0.0039869 0.0030281 -0 0 -0 
-1.9206 94.563 1.1433 -0 0 -0 0.36494 8.3178 2.3538 -5.1331 -1.4842 5.6294 -5.1331 -1.4842 5.6294 -4.3218 -1.213 4.7378 -0 0 -0 21.578 -4.6412 -9.0229 2.4816 -10.747 -2.8061 12.47 13.592 -32.016 -0 0 -0 17.619 -12.937 -29.478 -19.954 -12.028 -11.022 -5.3031 -0.33171 50.25 3.7141 1.066 -42.243 3.7141 1.066 -42.243 0.36494 8.3178 2.3538 4.4101 -8.4791 13.919 -1.0028 5.4051 4.3483 -5.0757 -3.4944 -86.492 0.0035245 -0.0032223 0.0024014 -0 0 -0 0.36494 8.3178 2.3538 3.4605 -22.68 -11.159 -14.146 3.7492 12.276 8.5019 7.6926 -5.91 0.019484 0.00046216 0.002998 -0 0 -0 
-1.9026 94.564 1.1054 -0 0 -0 0.37299 8.2494 2.4589 -5.1066 -1.4832 5.6212 -5.1066 -1.4832 5.6212 -4.2995 -1.2124 4.7309 -0 0 -0 21.49 -4.6776 -9.0181 2.4237 -10.827 -2.8957 12.458 13.531 -32.035 -0 0 -0 17.626 -12.896 -29.492 -20.364 -11.773 -11.189 -5.1476 -0.37839 50.315 3.713 1.0695 -42.199 3.713 1.0695 -42.199 0.37299 8.2494 2.4589 4.3556 -8.4863 13.834 -0.96909 5.468 4.2953 -5.0607 -3.5059 -86.467 0.0031299 -0.0038394 0.0020524 -0 0 -0 0.37299 8.2494 2.4589 3.3812 -22.641 -11.192 -14.157 3.8168 12.246 8.5607 7.6595 -5.9611 0.01998 -0.0063839 0.0029479 -0 0 -0 
-1.8849 94.566 1.0708 -0 0 -0 0.37023 8.1769 2.5627 -5.0819 -1.484 5.6167 -5.0819 -1.484 5.6167 -4.2788 -1.2133 4.727 -0 0 -0 21.412 -4.711 -9.0082 2.4015 -10.877 -2.9639 12.395 13.407 -32.062 -0 0 -0 17.643 -12.861 -29.516 -20.791 -11.486 -11.362 -5.0601 -0.41314 50.346 3.7242 1.0701 -42.155 3.7242 1.0701 -42.155 0.37023 8.1769 2.5627 4.3115 -8.4914 13.738 -0.92956 5.5351 4.2879 -5.0544 -3.5166 -86.475 0.0015404 -0.0040927 0.0018031 -0 0 -0 0.37023 8.1769 2.5627 3.3134 -22.591 -11.204 -14.169 3.8854 12.211 8.6263 7.6126 -6.0257 0.02022 -0.01108 0.0029052 -0 0 -0 
-1.8676 94.57 1.0395 -0 0 -0 0.34607 8.1052 2.6643 -5.0549 -1.4892 5.6153 -5.0549 -1.4892 5.6153 -4.2561 -1.2178 4.7258 -0 0 -0 21.341 -4.7386 -8.9888 2.4117 -10.898 -3.0019 12.318 13.184 -32.097 -0 0 -0 17.66 -12.824 -29.551 -21.199 -11.19 -11.532 -5.0434 -0.42597 50.352 3.7316 1.066 -42.113 3.7316 1.066 -42.113 0.34607 8.1052 2.6643 4.2986 -8.4865 13.655 -0.89384 5.5844 4.2923 -5.056 -3.5145 -86.502 0.00073486 -0.0044116 0.002063 -0 0 -0 0.34607 8.1052 2.6643 3.2689 -22.535 -11.211 -14.186 3.9531 12.172 8.696 7.5534 -6.0851 0.017367 -0.0022716 0.0028176 -0 0 -0 
-1.8502 94.575 1.0113 -0 0 -0 0.29307 8.0443 2.7615 -5.0221 -1.5036 5.6156 -5.0221 -1.5036 5.6156 -4.2287 -1.2302 4.7261 -0 0 -0 21.274 -4.7536 -8.9668 2.458 -10.891 -3.0072 12.25 12.85 -32.119 -0 0 -0 17.671 -12.776 -29.591 -21.561 -10.909 -11.692 -5.0936 -0.40396 50.345 3.7285 1.0582 -42.074 3.7285 1.0582 -42.074 0.29307 8.0443 2.7615 4.326 -8.4736 13.6 -0.86295 5.6039 4.2752 -5.065 -3.4978 -86.524 0.0010142 -0.0044267 0.0027922 -0 0 -0 0.29307 8.0443 2.7615 3.2543 -22.482 -11.233 -14.204 4.013 12.14 8.7634 7.4995 -6.1302 0.0084644 0.0092691 0.0022855 -0 0 -0 
-1.8323 94.582 0.98561 -0 0 -0 0.22083 7.9971 2.8527 -4.988 -1.5278 5.6156 -4.988 -1.5278 5.6156 -4.2002 -1.2507 4.7262 -0 0 -0 21.215 -4.7531 -8.9438 2.5357 -10.86 -2.9881 12.214 12.425 -32.113 -0 0 -0 17.674 -12.716 -29.632 -21.861 -10.657 -11.829 -5.201 -0.33976 50.329 3.7199 1.0503 -42.033 3.7199 1.0503 -42.033 0.22083 7.9971 2.8527 4.3764 -8.4543 13.578 -0.82827 5.5964 4.2296 -5.0823 -3.4728 -86.539 0.0021979 -0.0040038 0.0027863 -0 0 -0 0.22083 7.9971 2.8527 3.2587 -22.434 -11.275 -14.214 4.0577 12.124 8.8163 7.4613 -6.1632 4.7461e-05 0.016008 0.0017408 -0 0 -0 
-1.8132 94.591 0.96171 -0 0 -0 0.13955 7.9615 2.933 -4.9583 -1.5584 5.6163 -4.9583 -1.5584 5.6163 -4.1754 -1.2766 4.7269 -0 0 -0 21.173 -4.741 -8.9178 2.6276 -10.812 -2.9625 12.232 11.941 -32.078 -0 0 -0 17.677 -12.65 -29.671 -22.085 -10.449 -11.934 -5.3565 -0.2363 50.307 3.7137 1.0457 -41.988 3.7137 1.0457 -41.988 0.13955 7.9615 2.933 4.4342 -8.4284 13.581 -0.7896 5.5734 4.1859 -5.1043 -3.4499 -86.57 0.0024847 -0.0038145 0.0019023 -0 0 -0 0.13955 7.9615 2.933 3.2725 -22.392 -11.328 -14.212 4.0858 12.12 8.8553 7.4395 -6.1884 -0.0025673 0.018128 0.002508 -0 0 -0 
-1.7922 94.601 0.93875 -0 0 -0 0.052838 7.9344 2.9986 -4.9344 -1.5909 5.6185 -4.9344 -1.5909 5.6185 -4.1556 -1.304 4.7289 -0 0 -0 21.148 -4.721 -8.8876 2.7216 -10.752 -2.939 12.3 11.421 -32.024 -0 0 -0 17.684 -12.585 -29.709 -22.223 -10.302 -11.997 -5.5537 -0.10143 50.281 3.7121 1.0425 -41.941 3.7121 1.0425 -41.941 0.052838 7.9344 2.9986 4.4952 -8.4082 13.594 -0.75163 5.5559 4.1655 -5.1243 -3.4345 -86.62 0.002314 -0.003643 0.0022407 -0 0 -0 0.052838 7.9344 2.9986 3.2958 -22.355 -11.377 -14.207 4.0994 12.119 8.8904 7.4302 -6.2071 -0.0021779 0.017715 0.0030904 -0 0 -0 
-1.7688 94.613 0.91597 -0 0 -0 -0.035357 7.9115 3.0502 -4.9171 -1.6203 5.6211 -4.9171 -1.6203 5.6211 -4.1412 -1.3288 4.7312 -0 0 -0 21.136 -4.6961 -8.8563 2.8131 -10.69 -2.9147 12.411 10.885 -31.962 -0 0 -0 17.698 -12.527 -29.742 -22.273 -10.225 -12.019 -5.7803 0.047656 50.254 3.7153 1.0341 -41.893 3.7153 1.0341 -41.893 -0.035357 7.9115 3.0502 4.5522 -8.408 13.597 -0.71275 5.56 4.1673 -5.1366 -3.427 -86.668 0.0020836 -0.0036812 0.0030986 -0 0 -0 -0.035357 7.9115 3.0502 3.3267 -22.322 -11.413 -14.202 4.1042 12.115 8.9263 7.4295 -6.2192 -0.0010098 0.017063 0.0031912 -0 0 -0 
-1.7425 94.625 0.8927 -0 0 -0 -0.11843 7.8893 3.0921 -4.9071 -1.6453 5.6226 -4.9071 -1.6453 5.6226 -4.133 -1.3499 4.7325 -0 0 -0 21.133 -4.6659 -8.8274 2.8948 -10.637 -2.8853 12.55 10.348 -31.906 -0 0 -0 17.717 -12.47 -29.766 -22.235 -10.213 -12.001 -6.0198 0.1926 50.227 3.7208 1.0227 -41.844 3.7208 1.0227 -41.844 -0.11843 7.8893 3.0921 4.5952 -8.4276 13.579 -0.6669 5.582 4.1845 -5.1436 -3.4221 -86.701 0.0023354 -0.0040329 0.0028324 -0 0 -0 -0.11843 7.8893 3.0921 3.3554 -22.29 -11.443 -14.196 4.1032 12.106 8.9634 7.4361 -6.2234 0.00085484 0.01616 0.0031864 -0 0 -0 
-1.713 94.638 0.86856 -0 0 -0 -0.19387 7.8673 3.1282 -4.9028 -1.6665 5.6218 -4.9028 -1.6665 5.6218 -4.1295 -1.3677 4.732 -0 0 -0 21.131 -4.6322 -8.7976 2.9589 -10.594 -2.8528 12.699 9.8362 -31.866 -0 0 -0 17.734 -12.409 -29.783 -22.119 -10.256 -11.944 -6.254 0.3221 50.197 3.7254 1.0146 -41.793 3.7254 1.0146 -41.793 -0.19387 7.8673 3.1282 4.6218 -8.4527 13.547 -0.61322 5.6012 4.2127 -5.1489 -3.4121 -86.727 0.0029788 -0.0030977 0.0030404 -0 0 -0 -0.19387 7.8673 3.1282 3.3779 -22.26 -11.476 -14.19 4.0955 12.092 9.0025 7.4501 -6.2169 0.0061553 0.012847 0.0031581 -0 0 -0 
